<svg xmlns="http://www.w3.org/2000/svg" viewBox="0 0 32 32">
  <!-- 圆角方块背景 -->
  <rect width="32" height="32" rx="7" fill="#6366f1"/>

  <!-- 闪光/星芒：代表 AI 活跃状态 -->
  <!-- 竖轴 -->
  <path d="M16 5 L17.2 13.8 L16 14.5 L14.8 13.8 Z" fill="white" opacity="0.95"/>
  <path d="M16 27 L17.2 18.2 L16 17.5 L14.8 18.2 Z" fill="white" opacity="0.95"/>
  <!-- 横轴 -->
  <path d="M5 16 L13.8 14.8 L14.5 16 L13.8 17.2 Z" fill="white" opacity="0.95"/>
  <path d="M27 16 L18.2 14.8 L17.5 16 L18.2 17.2 Z" fill="white" opacity="0.95"/>
  <!-- 斜轴 45° -->
  <path d="M9.2 9.2 L14.5 14 L13.8 14.8 L13 14.2 Z" fill="white" opacity="0.7"/>
  <path d="M22.8 22.8 L17.5 18 L18.2 17.2 L19 17.8 Z" fill="white" opacity="0.7"/>
  <path d="M22.8 9.2 L18 14.5 L17.2 13.8 L17.8 13 Z" fill="white" opacity="0.7"/>
  <path d="M9.2 22.8 L14 17.5 L14.8 18.2 L14.2 19 Z" fill="white" opacity="0.7"/>

  <!-- 中心圆 -->
  <circle cx="16" cy="16" r="3" fill="white"/>
  <circle cx="16" cy="16" r="1.5" fill="#6366f1"/>
</svg>
